<?xml version="1.0" encoding="utf-8"?>
<!-- Generator: Adobe Illustrator 16.0.0, SVG Export Plug-In . SVG Version: 6.00 Build 0)  -->
<!DOCTYPE svg PUBLIC "-//W3C//DTD SVG 1.1//EN" "http://www.w3.org/Graphics/SVG/1.1/DTD/svg11.dtd">
<svg version="1.1" xmlns="http://www.w3.org/2000/svg" xmlns:xlink="http://www.w3.org/1999/xlink" x="0px" y="0px" width="2000"
	 height="2000" viewBox="0 0 3600 3600" enable-background="new 0 0 3600 3600" xml:space="preserve">
<pattern  width="300" height="150" patternUnits="userSpaceOnUse" id="waves_2" viewBox="150 -300 300 150" overflow="visible">
	<g>
		<polygon fill="none" points="150,-150 450,-150 450,-300 150,-300 		"/>
		<path fill="#083345" stroke="#E8C882" stroke-width="5" d="M300-2.5c81.462,0,147.5-66.038,147.5-147.5S381.462-297.5,300-297.5
			S152.5-231.462,152.5-150S218.538-2.5,300-2.5z"/>
		<path fill="#083345" stroke="#E8C882" stroke-width="5" d="M300-22.5c70.416,0,127.5-57.084,127.5-127.5S370.416-277.5,300-277.5
			S172.5-220.416,172.5-150S229.584-22.5,300-22.5z"/>
		<path fill="#083345" stroke="#E8C882" stroke-width="5" d="M300-42.5c59.371,0,107.5-48.13,107.5-107.5S359.371-257.5,300-257.5
			S192.5-209.37,192.5-150S240.629-42.5,300-42.5z"/>
		<path fill="#083345" stroke="#E8C882" stroke-width="5" d="M300-62.5c48.325,0,87.5-39.175,87.5-87.5s-39.175-87.5-87.5-87.5
			s-87.5,39.175-87.5,87.5S251.675-62.5,300-62.5z"/>
		<path fill="#083345" stroke="#E8C882" stroke-width="5" d="M300-82.5c37.279,0,67.5-30.221,67.5-67.5s-30.221-67.5-67.5-67.5
			s-67.5,30.221-67.5,67.5S262.721-82.5,300-82.5z"/>
		<path fill="#083345" stroke="#E8C882" stroke-width="5" d="M300-102.5c26.233,0,47.5-21.267,47.5-47.5s-21.267-47.5-47.5-47.5
			s-47.5,21.267-47.5,47.5S273.767-102.5,300-102.5z"/>
		<path fill="#083345" stroke="#E8C882" stroke-width="5" d="M300-122.5c15.188,0,27.5-12.313,27.5-27.5s-12.312-27.5-27.5-27.5
			s-27.5,12.313-27.5,27.5S284.812-122.5,300-122.5z"/>
		<path fill="#083345" stroke="#E8C882" stroke-width="5" d="M150-77.5c81.462,0,147.5-66.038,147.5-147.5S231.462-372.5,150-372.5
			S2.5-306.462,2.5-225S68.538-77.5,150-77.5z"/>
		<path fill="#083345" stroke="#E8C882" stroke-width="5" d="M150-97.5c70.416,0,127.5-57.084,127.5-127.5S220.416-352.5,150-352.5
			S22.5-295.416,22.5-225S79.584-97.5,150-97.5z"/>
		<path fill="#083345" stroke="#E8C882" stroke-width="5" d="M150-117.5c59.371,0,107.5-48.13,107.5-107.5S209.371-332.5,150-332.5
			S42.5-284.37,42.5-225S90.629-117.5,150-117.5z"/>
		<path fill="#083345" stroke="#E8C882" stroke-width="5" d="M150-137.5c48.325,0,87.5-39.175,87.5-87.5s-39.175-87.5-87.5-87.5
			S62.5-273.325,62.5-225S101.675-137.5,150-137.5z"/>
		<path fill="#083345" stroke="#E8C882" stroke-width="5" d="M150-157.5c37.279,0,67.5-30.221,67.5-67.5s-30.221-67.5-67.5-67.5
			S82.5-262.279,82.5-225S112.721-157.5,150-157.5z"/>
		<path fill="#083345" stroke="#E8C882" stroke-width="5" d="M150-177.5c26.233,0,47.5-21.267,47.5-47.5s-21.267-47.5-47.5-47.5
			s-47.5,21.267-47.5,47.5S123.767-177.5,150-177.5z"/>
		<path fill="#083345" stroke="#E8C882" stroke-width="5" d="M150-197.5c15.188,0,27.5-12.313,27.5-27.5s-12.312-27.5-27.5-27.5
			s-27.5,12.313-27.5,27.5S134.812-197.5,150-197.5z"/>
		<path fill="#083345" stroke="#E8C882" stroke-width="5" d="M450-77.5c81.462,0,147.5-66.038,147.5-147.5S531.462-372.5,450-372.5
			S302.5-306.462,302.5-225S368.538-77.5,450-77.5z"/>
		<path fill="#083345" stroke="#E8C882" stroke-width="5" d="M450-97.5c70.416,0,127.5-57.084,127.5-127.5S520.416-352.5,450-352.5
			S322.5-295.416,322.5-225S379.584-97.5,450-97.5z"/>
		<path fill="#083345" stroke="#E8C882" stroke-width="5" d="M450-117.5c59.371,0,107.5-48.13,107.5-107.5S509.371-332.5,450-332.5
			c-59.371,0-107.5,48.13-107.5,107.5S390.629-117.5,450-117.5z"/>
		<path fill="#083345" stroke="#E8C882" stroke-width="5" d="M450-137.5c48.325,0,87.5-39.175,87.5-87.5s-39.175-87.5-87.5-87.5
			s-87.5,39.175-87.5,87.5S401.675-137.5,450-137.5z"/>
		<path fill="#083345" stroke="#E8C882" stroke-width="5" d="M450-157.5c37.279,0,67.5-30.221,67.5-67.5s-30.221-67.5-67.5-67.5
			s-67.5,30.221-67.5,67.5S412.721-157.5,450-157.5z"/>
		<path fill="#083345" stroke="#E8C882" stroke-width="5" d="M450-177.5c26.233,0,47.5-21.267,47.5-47.5s-21.267-47.5-47.5-47.5
			s-47.5,21.267-47.5,47.5S423.767-177.5,450-177.5z"/>
		<path fill="#083345" stroke="#E8C882" stroke-width="5" d="M450-197.5c15.188,0,27.5-12.313,27.5-27.5s-12.313-27.5-27.5-27.5
			c-15.188,0-27.5,12.313-27.5,27.5S434.812-197.5,450-197.5z"/>
		<path fill="#083345" stroke="#E8C882" stroke-width="5" d="M300-152.5c81.462,0,147.5-66.038,147.5-147.5S381.462-447.5,300-447.5
			S152.5-381.462,152.5-300S218.538-152.5,300-152.5z"/>
		<path fill="#083345" stroke="#E8C882" stroke-width="5" d="M300-172.5c70.416,0,127.5-57.084,127.5-127.5S370.416-427.5,300-427.5
			S172.5-370.416,172.5-300S229.584-172.5,300-172.5z"/>
		<path fill="#083345" stroke="#E8C882" stroke-width="5" d="M300-192.5c59.371,0,107.5-48.13,107.5-107.5S359.371-407.5,300-407.5
			S192.5-359.37,192.5-300S240.629-192.5,300-192.5z"/>
		<path fill="#083345" stroke="#E8C882" stroke-width="5" d="M300-212.5c48.325,0,87.5-39.175,87.5-87.5s-39.175-87.5-87.5-87.5
			s-87.5,39.175-87.5,87.5S251.675-212.5,300-212.5z"/>
		<path fill="#083345" stroke="#E8C882" stroke-width="5" d="M300-232.5c37.279,0,67.5-30.221,67.5-67.5s-30.221-67.5-67.5-67.5
			s-67.5,30.221-67.5,67.5S262.721-232.5,300-232.5z"/>
		<path fill="#083345" stroke="#E8C882" stroke-width="5" d="M300-252.5c26.233,0,47.5-21.267,47.5-47.5s-21.267-47.5-47.5-47.5
			s-47.5,21.267-47.5,47.5S273.767-252.5,300-252.5z"/>
		<path fill="#083345" stroke="#E8C882" stroke-width="5" d="M300-272.5c15.188,0,27.5-12.313,27.5-27.5s-12.312-27.5-27.5-27.5
			s-27.5,12.313-27.5,27.5S284.812-272.5,300-272.5z"/>
		<path fill="#083345" stroke="#E8C882" stroke-width="5" d="M150-227.5c81.462,0,147.5-66.038,147.5-147.5S231.462-522.5,150-522.5
			S2.5-456.462,2.5-375S68.538-227.5,150-227.5z"/>
		<path fill="#083345" stroke="#E8C882" stroke-width="5" d="M150-247.5c70.416,0,127.5-57.084,127.5-127.5S220.416-502.5,150-502.5
			S22.5-445.416,22.5-375S79.584-247.5,150-247.5z"/>
		<path fill="#083345" stroke="#E8C882" stroke-width="5" d="M150-267.5c59.371,0,107.5-48.13,107.5-107.5S209.371-482.5,150-482.5
			S42.5-434.37,42.5-375S90.629-267.5,150-267.5z"/>
		<path fill="#083345" stroke="#E8C882" stroke-width="5" d="M150-287.5c48.325,0,87.5-39.175,87.5-87.5s-39.175-87.5-87.5-87.5
			S62.5-423.325,62.5-375S101.675-287.5,150-287.5z"/>
		<path fill="#083345" stroke="#E8C882" stroke-width="5" d="M150-307.5c37.279,0,67.5-30.221,67.5-67.5s-30.221-67.5-67.5-67.5
			S82.5-412.279,82.5-375S112.721-307.5,150-307.5z"/>
		<path fill="#083345" stroke="#E8C882" stroke-width="5" d="M150-327.5c26.233,0,47.5-21.267,47.5-47.5s-21.267-47.5-47.5-47.5
			s-47.5,21.267-47.5,47.5S123.767-327.5,150-327.5z"/>
		<path fill="#083345" stroke="#E8C882" stroke-width="5" d="M150-347.5c15.188,0,27.5-12.313,27.5-27.5s-12.312-27.5-27.5-27.5
			s-27.5,12.313-27.5,27.5S134.812-347.5,150-347.5z"/>
		<path fill="#083345" stroke="#E8C882" stroke-width="5" d="M450-227.5c81.462,0,147.5-66.038,147.5-147.5S531.462-522.5,450-522.5
			S302.5-456.462,302.5-375S368.538-227.5,450-227.5z"/>
		<path fill="#083345" stroke="#E8C882" stroke-width="5" d="M450-247.5c70.416,0,127.5-57.084,127.5-127.5S520.416-502.5,450-502.5
			S322.5-445.416,322.5-375S379.584-247.5,450-247.5z"/>
		<path fill="#083345" stroke="#E8C882" stroke-width="5" d="M450-267.5c59.371,0,107.5-48.13,107.5-107.5S509.371-482.5,450-482.5
			c-59.371,0-107.5,48.13-107.5,107.5S390.629-267.5,450-267.5z"/>
		<path fill="#083345" stroke="#E8C882" stroke-width="5" d="M450-287.5c48.325,0,87.5-39.175,87.5-87.5s-39.175-87.5-87.5-87.5
			s-87.5,39.175-87.5,87.5S401.675-287.5,450-287.5z"/>
		<path fill="#083345" stroke="#E8C882" stroke-width="5" d="M450-307.5c37.279,0,67.5-30.221,67.5-67.5s-30.221-67.5-67.5-67.5
			s-67.5,30.221-67.5,67.5S412.721-307.5,450-307.5z"/>
		<path fill="#083345" stroke="#E8C882" stroke-width="5" d="M450-327.5c26.233,0,47.5-21.267,47.5-47.5s-21.267-47.5-47.5-47.5
			s-47.5,21.267-47.5,47.5S423.767-327.5,450-327.5z"/>
		<path fill="#083345" stroke="#E8C882" stroke-width="5" d="M450-347.5c15.188,0,27.5-12.313,27.5-27.5s-12.313-27.5-27.5-27.5
			c-15.188,0-27.5,12.313-27.5,27.5S434.812-347.5,450-347.5z"/>
	</g>
</pattern>
<g id="Board_BG">
	<rect x="-0.5" y="0.5" fill="#1E5866" stroke="#DEA176" stroke-miterlimit="10" width="3600" height="3600"/>
</g>
<g id="Board">
	<g opacity="0.3">
		
			<pattern  id="SVGID_1_" xlink:href="#waves_2" patternTransform="matrix(1.5115 0 0 -1.5115 4607.3145 -9530.957)"  opacity="0.3">
		</pattern>
		<rect fill="url(#SVGID_1_)" width="3598.801" height="3598.801"/>
	</g>
</g>
<g id="PLAY_AREA">
</g>
</svg>