<?xml version="1.0" encoding="utf-8"?>
<!-- Generator: Adobe Illustrator 16.0.0, SVG Export Plug-In . SVG Version: 6.00 Build 0)  -->
<!DOCTYPE svg PUBLIC "-//W3C//DTD SVG 1.1//EN" "http://www.w3.org/Graphics/SVG/1.1/DTD/svg11.dtd">
<svg version="1.1" id="P2" xmlns="http://www.w3.org/2000/svg" xmlns:xlink="http://www.w3.org/1999/xlink" x="0px" y="0px"
	 width="180px" height="180px" viewBox="0 0 180 180" enable-background="new 0 0 180 180" xml:space="preserve">
<g>
	<circle fill="#C68B22" stroke="#000000" stroke-width="8" stroke-miterlimit="10" cx="90" cy="90" r="85"/>
	<g>
		<g>
			<g>
				<path fill="#FFFFFF" d="M127.728,90c3.738-3.281,6.635-7.141,8.322-11.142c2.324-5.514,2.225-10.941-0.281-15.282
					s-7.156-7.141-13.094-7.884c-4.309-0.54-9.1,0.039-13.811,1.636c-0.973-4.878-2.867-9.317-5.488-12.778
					c-3.613-4.771-8.363-7.398-13.376-7.398s-9.763,2.627-13.376,7.398c-2.621,3.461-4.515,7.9-5.487,12.778
					c-4.711-1.597-9.503-2.176-13.811-1.636c-5.938,0.743-10.589,3.543-13.095,7.884c-2.506,4.34-2.605,9.768-0.281,15.282
					c1.688,4.001,4.584,7.861,8.323,11.142c-3.739,3.282-6.636,7.141-8.323,11.143c-2.324,5.514-2.225,10.941,0.281,15.282
					s7.156,7.141,13.095,7.884c4.309,0.539,9.099-0.039,13.811-1.636c0.973,4.878,2.866,9.317,5.487,12.779
					c3.613,4.771,8.363,7.398,13.376,7.398s9.763-2.627,13.376-7.398c2.621-3.462,4.516-7.9,5.487-12.778
					c4.712,1.597,9.503,2.176,13.812,1.636c5.938-0.743,10.588-3.543,13.094-7.884s2.605-9.769,0.281-15.282
					C134.362,97.141,131.466,93.282,127.728,90z M102.387,90c0,1.148-0.161,2.259-0.454,3.313l5.706,3.295l-3.097,5.363
					l-5.711-3.297c-1.553,1.581-3.524,2.75-5.734,3.32v6.585h-6.193v-6.585c-2.21-0.571-4.182-1.74-5.734-3.32l-5.711,3.297
					l-3.097-5.363l5.706-3.295c-0.293-1.055-0.454-2.166-0.454-3.313c0-1.147,0.161-2.258,0.454-3.313l-5.706-3.295l3.097-5.363
					l5.711,3.297c1.553-1.581,3.524-2.749,5.734-3.32V71.42h6.193v6.585c2.21,0.571,4.182,1.74,5.734,3.32l5.711-3.297l3.097,5.363
					l-5.706,3.295C102.226,87.742,102.387,88.853,102.387,90z"/>
			</g>
		</g>
		<g>
			<g>
				<path fill="#FFFFFF" d="M90,83.807c-3.415,0-6.193,2.778-6.193,6.193s2.778,6.193,6.193,6.193s6.193-2.778,6.193-6.193
					S93.415,83.807,90,83.807z"/>
			</g>
		</g>
		<g>
		</g>
		<g>
		</g>
		<g>
		</g>
		<g>
		</g>
		<g>
		</g>
		<g>
		</g>
		<g>
		</g>
		<g>
		</g>
		<g>
		</g>
		<g>
		</g>
		<g>
		</g>
		<g>
		</g>
		<g>
		</g>
		<g>
		</g>
		<g>
		</g>
	</g>
</g>
</svg>
